<?xml version="1.0" encoding="UTF-8" standalone="no"?>
<!-- Created with Inkscape (http://www.inkscape.org/) -->

<svg
   xmlns:dc="http://purl.org/dc/elements/1.1/"
   xmlns:cc="http://creativecommons.org/ns#"
   xmlns:rdf="http://www.w3.org/1999/02/22-rdf-syntax-ns#"
   xmlns:svg="http://www.w3.org/2000/svg"
   xmlns="http://www.w3.org/2000/svg"
   xmlns:sodipodi="http://sodipodi.sourceforge.net/DTD/sodipodi-0.dtd"
   xmlns:inkscape="http://www.inkscape.org/namespaces/inkscape"
   width="1052.3622"
   height="744.09448"
   id="svg2"
   version="1.1"
   inkscape:version="0.48.4 r9939"
   sodipodi:docname="New document 1">
  <defs
     id="defs4" />
  <sodipodi:namedview
     id="base"
     pagecolor="#ffffff"
     bordercolor="#666666"
     borderopacity="1.0"
     inkscape:pageopacity="0.0"
     inkscape:pageshadow="2"
     inkscape:zoom="1.08"
     inkscape:cx="407.6622"
     inkscape:cy="368.67725"
     inkscape:document-units="px"
     inkscape:current-layer="layer1"
     showgrid="false"
     inkscape:window-width="1920"
     inkscape:window-height="1032"
     inkscape:window-x="0"
     inkscape:window-y="0"
     inkscape:window-maximized="1" />
  <metadata
     id="metadata7">
    <rdf:RDF>
      <cc:Work
         rdf:about="">
        <dc:format>image/svg+xml</dc:format>
        <dc:type
           rdf:resource="http://purl.org/dc/dcmitype/StillImage" />
        <dc:title></dc:title>
      </cc:Work>
    </rdf:RDF>
  </metadata>
  <g
     inkscape:label="Layer 1"
     inkscape:groupmode="layer"
     id="layer1"
     transform="translate(0,-308.2677)">
    <path
       style="fill:none;stroke:#000000;stroke-width:1px;stroke-linecap:butt;stroke-linejoin:miter;stroke-opacity:1"
       d="M 605.55556,180.20559 165.74074,465.39078 381.48148,541.3167 835.18518,236.68708 z"
       id="path2993"
       inkscape:connector-curvature="0"
       transform="translate(0,308.2677)"
       sodipodi:nodetypes="ccccc" />
    <path
       style="fill:none;stroke:#000000;stroke-width:1px;stroke-linecap:butt;stroke-linejoin:miter;stroke-opacity:1"
       d="m 376.85185,327.42782 213.88889,69.44444"
       id="path2997"
       inkscape:connector-curvature="0"
       transform="translate(0,308.2677)" />
    <path
       inkscape:connector-curvature="0"
       id="path2999"
       d="m 449.07407,589.39922 213.88889,69.44444"
       style="fill:none;stroke:#000000;stroke-width:1px;stroke-linecap:butt;stroke-linejoin:miter;stroke-opacity:1" />
    <path
       style="fill:none;stroke:#000000;stroke-width:1px;stroke-linecap:butt;stroke-linejoin:miter;stroke-opacity:1"
       d="m 515.74074,544.02885 213.88889,69.44444"
       id="path3001"
       inkscape:connector-curvature="0" />
    <path
       inkscape:connector-curvature="0"
       id="path3003"
       d="m 570.37037,511.62144 213.88889,69.44444"
       style="fill:none;stroke:#000000;stroke-width:1px;stroke-linecap:butt;stroke-linejoin:miter;stroke-opacity:1" />
    <path
       style="fill:none;stroke:#000000;stroke-width:1px;stroke-linecap:butt;stroke-linejoin:miter;stroke-opacity:1"
       d="M 303.70371,685.69551 517.5926,755.13995"
       id="path3005"
       inkscape:connector-curvature="0" />
    <path
       inkscape:connector-curvature="0"
       id="path3007"
       d="m 234.25927,731.99181 213.88889,69.44444"
       style="fill:none;stroke:#000000;stroke-width:1px;stroke-linecap:butt;stroke-linejoin:miter;stroke-opacity:1" />
    <path
       style="fill:#00ff00;fill-opacity:1;stroke:none"
       id="path3013"
       d="m 450.29681,275.73927 c 9.19862,3.56257 18.7398,6.0318 28.26549,8.53304 12.16455,3.0333 24.37215,5.88869 36.55191,8.85836 13.24221,3.76921 26.49025,7.51521 39.64634,11.57641 8.18498,2.70104 16.45819,5.04831 24.81088,7.16115 6.24883,1.64985 12.57447,2.973 18.8311,4.59069 5.25764,1.18967 10.48985,2.46963 15.71105,3.80767 4.33049,0.99779 8.65622,2.02827 12.87572,3.43091 3.5652,1.35679 7.05518,2.90643 10.52408,4.49136 3.69841,1.85078 7.37993,3.79022 10.9425,5.89699 3.52362,1.80164 6.85312,3.94951 10.2486,5.97553 3.19938,1.58357 6.24275,3.43982 9.32029,5.24047 2.26176,1.46633 4.70614,2.61595 6.97818,4.06194 0,0 -11.54111,7.44025 -11.54111,7.44025 l 0,0 c -2.28208,-1.38877 -4.65795,-2.62112 -6.90163,-4.07544 -3.05579,-1.8334 -6.15666,-3.57927 -9.29719,-5.26284 -3.38505,-2.0335 -6.72667,-4.14383 -10.23502,-5.96398 -3.5573,-2.0352 -7.14374,-4.05074 -10.8554,-5.78918 -3.44941,-1.55164 -6.92264,-3.06509 -10.48583,-4.33852 -4.17626,-1.35107 -8.42105,-2.45573 -12.69951,-3.43552 -5.22664,-1.29135 -10.45153,-2.58722 -15.69013,-3.83075 -6.24482,-1.59844 -12.54487,-2.96889 -18.77465,-4.62842 -8.28979,-2.15591 -16.46614,-4.64984 -24.57744,-7.40686 -13.09147,-4.18921 -26.30389,-7.99603 -39.59236,-11.51056 -12.17102,-2.9811 -24.36697,-5.86092 -36.5231,-8.90409 -9.68359,-2.52633 -19.33467,-5.14452 -28.87422,-8.17327 0,0 11.34145,-7.74534 11.34145,-7.74534 z"
       inkscape:connector-curvature="0"
       transform="translate(0,308.2677)" />
    <path
       style="fill:#00ff00;fill-opacity:1;stroke:none"
       id="path3015"
       d="m 536.74785,530.58227 c 7.49882,3.44199 15.38482,5.9266 23.28106,8.27138 10.55158,3.06943 21.16178,5.93787 31.61672,9.327 15.34018,6.4551 31.2202,11.51314 47.02928,16.67323 13.69512,4.4161 27.50128,8.47198 41.1365,13.07166 7.70037,2.73164 15.4099,5.44499 22.96144,8.56858 6.11051,2.82952 12.36611,5.31822 18.56632,7.93773 7.48008,2.90912 14.81248,6.16797 22.20686,9.28325 5.40029,2.36529 10.81487,4.71796 16.43811,6.5068 0,0 -11.26329,7.63779 -11.26329,7.63779 l 0,0 c -5.54824,-1.96652 -10.92404,-4.36247 -16.31591,-6.71605 -7.36901,-3.1693 -14.70038,-6.426 -22.20399,-9.27143 -6.24072,-2.55158 -12.47574,-5.11508 -18.61406,-7.90738 -7.45714,-3.13145 -15.06406,-5.89307 -22.65801,-8.67178 -13.48986,-4.75078 -27.18978,-8.85519 -40.78625,-13.28671 -15.86327,-5.25132 -31.77527,-10.40011 -47.3611,-16.43891 -10.47393,-3.35931 -21.09565,-6.21883 -31.66526,-9.25825 -8.00975,-2.39419 -15.96525,-4.97575 -23.72519,-8.09655 0,0 11.35677,-7.63036 11.35677,-7.63036 z"
       inkscape:connector-curvature="0" />
    <path
       style="fill:#00ff00;fill-opacity:1;stroke:none"
       id="path3017"
       d="m 556.16797,516.54235 c 12.54638,4.48063 25.6871,7.1335 38.65042,10.10878 24.98543,5.05778 49.73954,11.1892 74.24274,18.20611 15.09707,4.51981 30.11452,9.44308 44.67425,15.5022 5.42351,2.25703 11.15598,4.96258 16.50631,7.43564 9.80697,4.79029 19.67362,9.45796 29.80929,13.51209 10.2217,3.64772 20.54527,6.99665 30.99589,9.92472 1.18469,0.34368 2.36937,0.68736 3.55406,1.03104 0,0 -11.06396,7.55531 -11.06396,7.55531 l 0,0 c -1.15518,-0.35911 -2.31036,-0.71822 -3.46554,-1.07734 -10.40252,-3.13715 -20.73375,-6.51332 -30.99989,-10.07044 -10.1312,-3.9406 -19.78753,-8.93431 -29.48329,-13.83142 -5.89417,-2.84328 -10.08941,-4.94402 -16.19931,-7.54655 -14.42355,-6.14373 -29.34775,-11.05982 -44.34784,-15.57392 -24.55161,-7.03249 -49.36978,-13.12667 -74.45016,-17.97618 -10.15144,-2.22489 -10.25927,-2.23141 -20.03953,-4.43813 -3.43894,-0.77593 -10.09686,-2.25178 -13.85561,-3.25619 -0.8524,-0.22778 -4.70775,-1.44181 -5.83595,-1.79482 0,0 11.30812,-7.7109 11.30812,-7.7109 z"
       inkscape:connector-curvature="0" />
    <text
       xml:space="preserve"
       style="font-size:40px;font-style:normal;font-weight:normal;line-height:125%;letter-spacing:0px;word-spacing:0px;fill:#000000;fill-opacity:1;stroke:none;font-family:Sans"
       x="371.29633"
       y="600.51031"
       id="text3019"
       sodipodi:linespacing="125%"><tspan
         sodipodi:role="line"
         id="tspan3021"
         x="371.29633"
         y="600.51031">AA</tspan></text>
    <text
       xml:space="preserve"
       style="font-size:40px;font-style:normal;font-weight:normal;line-height:125%;letter-spacing:0px;word-spacing:0px;fill:#000000;fill-opacity:1;stroke:none;font-family:Sans"
       x="495.37039"
       y="505.13995"
       id="text3023"
       sodipodi:linespacing="125%"><tspan
         sodipodi:role="line"
         id="tspan3025"
         x="495.37039"
         y="505.13995">CC</tspan></text>
    <text
       xml:space="preserve"
       style="font-size:40px;font-style:normal;font-weight:normal;line-height:125%;letter-spacing:0px;word-spacing:0px;fill:#000000;fill-opacity:1;stroke:none;font-family:Sans"
       x="465.74072"
       y="532.91772"
       id="text3027"
       sodipodi:linespacing="125%"><tspan
         sodipodi:role="line"
         id="tspan3029"
         x="465.74072"
         y="532.91772">DD</tspan></text>
    <path
       style="fill:none;stroke:#000000;stroke-width:1;stroke-linecap:butt;stroke-linejoin:miter;stroke-opacity:1;stroke-miterlimit:4;stroke-dasharray:8,8;stroke-dashoffset:0"
       d="M 665.74074,358.9093 664.81481,462.613"
       id="path3053"
       inkscape:connector-curvature="0"
       transform="translate(0,308.2677)" />
    <path
       inkscape:connector-curvature="0"
       id="path3823"
       d="m 590.74074,711.62144 -0.92593,103.7037"
       style="fill:none;stroke:#000000;stroke-width:1;stroke-linecap:butt;stroke-linejoin:miter;stroke-miterlimit:4;stroke-opacity:1;stroke-dasharray:8, 8;stroke-dashoffset:0" />
    <path
       style="fill:none;stroke:#000000;stroke-width:1;stroke-linecap:butt;stroke-linejoin:miter;stroke-miterlimit:4;stroke-opacity:1;stroke-dasharray:8, 8;stroke-dashoffset:0"
       d="m 518.51852,759.76959 -0.92593,103.7037"
       id="path3825"
       inkscape:connector-curvature="0" />
    <path
       style="fill:none;stroke:#000000;stroke-width:1px;stroke-linecap:butt;stroke-linejoin:miter;stroke-opacity:1"
       d="m 832.40741,242.24263 c 1.54228,-0.38508 0.62352,5.87667 0.92592,6.48148 0.19521,0.39041 0.7879,0.51184 0.92593,0.92593 0.14128,0.42385 0,4.11282 0,4.62963 0,4.01234 0,8.02469 0,12.03703 0,0.417 -0.1409,2.49599 0,2.77778 0.37644,0.75289 1.46879,0.76612 0.92593,1.85185 -0.99351,1.98701 -1.01116,0.0426 -2.77778,0.92593 -0.27606,0.13803 0.21824,0.70768 0,0.92593 -0.48801,0.488 -1.23457,0.61728 -1.85185,0.92592 -0.61729,0.30864 -1.19713,0.70769 -1.85186,0.92593 -0.2928,0.0976 -0.64986,-0.13803 -0.92592,0 -0.39041,0.1952 -0.56275,0.68381 -0.92593,0.92592 -0.57423,0.38283 -1.27762,0.54311 -1.85185,0.92593 -0.36318,0.24212 -0.53552,0.73072 -0.92593,0.92593 -0.27605,0.13802 -0.64986,-0.13803 -0.92592,0 -0.39041,0.1952 -0.58509,0.65325 -0.92593,0.92592 -1.20504,0.96404 -2.32341,2.08764 -3.7037,2.77778 -0.55212,0.27606 -1.26625,-0.1952 -1.85185,0 -0.82818,0.27606 -1.1255,1.36761 -1.85186,1.85185 -0.57423,0.38282 -1.27761,0.5431 -1.85185,0.92593 -1.06837,0.71225 -1.7094,2.06552 -2.77777,2.77778 -0.57424,0.38282 -1.27762,0.5431 -1.85186,0.92592 -0.36317,0.24212 -0.53552,0.73072 -0.92592,0.92593 -0.27606,0.13803 -0.64987,-0.13803 -0.92593,0 -0.49452,0.24726 -2.29031,2.29031 -2.77778,2.77777 -1.54321,1.54321 -3.08642,3.08642 -4.62963,4.62963 -0.48746,0.48747 -2.28325,2.53052 -2.77777,2.77778 -0.27606,0.13803 -0.64987,-0.13803 -0.92593,0 -0.3904,0.1952 -0.61728,0.61729 -0.92593,0.92593 -0.30864,0.30864 -0.61728,0.61728 -0.92592,0.92592 -1.23457,1.23457 -2.46914,2.46914 -3.70371,3.70371 -0.72756,0.72756 -4.03984,4.33473 -4.62962,4.62963 -0.27606,0.13803 -0.64987,-0.13803 -0.92593,0 -0.91114,0.45557 -2.79257,3.24813 -3.7037,3.7037 -0.27606,0.13803 -0.64987,-0.13803 -0.92593,0 -0.99097,0.49548 -0.86088,1.35637 -1.85185,1.85185 -0.27606,0.13803 -0.64987,-0.13803 -0.92593,0 -0.49548,0.24774 -1.35637,1.60411 -1.85185,1.85185 -0.55212,0.27606 -1.29974,-0.27605 -1.85185,0 -0.39041,0.19521 -0.53552,0.73073 -0.92593,0.92593 -0.27606,0.13803 -0.64987,-0.13803 -0.92592,0 -0.49549,0.24774 -1.35637,1.60411 -1.85186,1.85185 -0.27605,0.13803 -0.64986,-0.13803 -0.92592,0 -0.39041,0.1952 -0.56275,0.68381 -0.92593,0.92593 -0.57423,0.38282 -1.27761,0.5431 -1.85185,0.92592 -0.36318,0.24212 -0.53552,0.73073 -0.92593,0.92593 -0.27605,0.13803 -0.63312,-0.0976 -0.92592,0 -3.35675,1.11892 -0.65898,0.43932 -2.77778,1.85185 -0.51427,2.06396 -1.88335,0.47871 -2.77778,0.92593 -0.3904,0.1952 -0.53552,0.73072 -0.92592,0.92592 -0.27606,0.13803 -0.63313,-0.0976 -0.92593,0 -4.19428,1.3981 -0.12928,0.26276 -2.77778,1.85186 -1.18358,0.71015 -2.42213,1.33922 -3.7037,1.85185 -0.28657,0.11462 -0.64987,-0.13803 -0.92593,0 -0.3904,0.1952 -0.53552,0.73072 -0.92592,0.92592 -0.27606,0.13803 -0.61729,0 -0.92593,0 -0.61728,0.30865 -1.27761,0.54311 -1.85185,0.92593 -0.36318,0.24212 -0.53552,0.73072 -0.92593,0.92593 -0.27605,0.13802 -0.64986,-0.13803 -0.92592,0 -0.39041,0.1952 -0.53552,0.73072 -0.92593,0.92592 -0.27606,0.13803 -0.64987,-0.13803 -0.92592,0 -4.2376,2.1188 3.92909,-0.38377 -2.77778,1.85185 -0.2928,0.0976 -0.64987,-0.13803 -0.92593,0 -0.3904,0.19521 -0.56274,0.68381 -0.92592,0.92593 -0.57424,0.38282 -1.27762,0.5431 -1.85185,0.92593 -0.36318,0.24211 -0.53553,0.73072 -0.92593,0.92592 -0.27606,0.13803 -0.64987,-0.13803 -0.92593,0 -1.11111,0.55556 -1.66666,2.22222 -2.77777,2.77778 -0.27606,0.13803 -0.64987,-0.13803 -0.92593,0 -0.39041,0.1952 -0.61728,0.61728 -0.92593,0.92592 -0.30864,0.30865 -0.61728,0.61729 -0.92592,0.92593 -0.92593,0.92593 -1.85185,1.85185 -2.77778,2.77778 -0.61728,0.61728 -1.36761,1.12549 -1.85185,1.85185 -0.38283,0.57424 -0.5431,1.27762 -0.92593,1.85185 -0.55663,0.83495 -3.52363,3.1635 -3.7037,3.70371 -0.1952,0.5856 0.27606,1.29973 0,1.85185 -0.39041,0.78081 -1.32807,1.15347 -1.85185,1.85185 -1.21358,1.6181 -0.91817,2.76227 -1.85186,4.62963 -2.17387,4.34774 -1.39189,1.16491 -2.77777,4.62963 -0.36248,0.9062 -0.48944,1.90481 -0.92593,2.77778 -0.49767,0.99534 -1.27931,1.82354 -1.85185,2.77777 -1.05506,1.75843 -1.64089,3.85022 -2.77778,5.55556 -0.24212,0.36318 -0.7879,0.51184 -0.92592,0.92593 -0.19521,0.5856 0.14971,1.25299 0,1.85185 0.55808,1.67587 -1.49995,1.72206 -1.85186,2.77778 -0.1952,0.5856 0.19521,1.26624 0,1.85185 -0.13803,0.41408 -0.6838,0.56275 -0.92592,0.92592 -0.38283,0.57424 -0.70769,1.19713 -0.92593,1.85186 -0.0976,0.2928 0.0749,0.62649 0,0.92592 -0.23672,0.94687 -0.68921,1.83091 -0.92592,2.77778 -0.0749,0.29943 0.0976,0.63312 0,0.92592 -0.43649,1.30946 -1.23457,2.46914 -1.85186,3.70371 -0.92592,1.85185 -1.85185,3.7037 -2.77777,5.55555 -0.30865,0.61729 -0.75855,1.18232 -0.92593,1.85186 -1.0594,4.2376 1.87026,-0.96275 -0.92593,4.62963 -0.3904,0.7808 -1.57579,1.02367 -1.85185,1.85185 -0.1952,0.5856 0.1952,1.26624 0,1.85185 -0.13803,0.41409 -0.76382,0.52066 -0.92592,0.92593 -0.47262,1.18154 -0.45331,2.52215 -0.92593,3.7037 -0.16211,0.40527 -0.73072,0.53552 -0.92593,0.92592 -0.13802,0.27606 0.0976,0.63313 0,0.92593 -2.23562,6.70687 0.26695,-1.45982 -1.85185,2.77778 -0.13803,0.27606 0.13803,0.64987 0,0.92592 -2.1188,4.2376 0.38377,-3.92909 -1.85185,2.77778 -0.1952,0.58561 0.1952,1.26625 0,1.85185 -0.21824,0.65473 -0.61728,1.23457 -0.92592,1.85186 -0.30865,0.61728 -0.54311,1.27761 -0.92593,1.85185 -0.24212,0.36318 -0.68381,0.56275 -0.92593,0.92592 -0.38282,0.57424 -0.61728,1.23457 -0.92592,1.85186 -0.30864,0.61728 -0.70769,1.19712 -0.92593,1.85185 -0.0976,0.2928 0,0.61728 0,0.92592 -0.30864,0.61729 -0.70768,1.19713 -0.92592,1.85186 -0.19521,0.5856 0.1952,1.26624 0,1.85185 -2.23563,6.70686 0.26694,-1.45982 -1.85186,2.77777 -0.13803,0.27606 0.13803,0.64987 0,0.92593 -0.1952,0.39041 -0.73072,0.53552 -0.92592,0.92593 -0.13803,0.27605 0.13803,0.64986 0,0.92592 -1.14417,2.28834 -0.92593,-0.31961 -0.92593,1.85185 0,2.17147 0.21824,-0.43648 -0.92592,1.85186 -0.13803,0.27605 0.13802,0.64986 0,0.92592 -0.19521,0.39041 -0.73073,0.53552 -0.92593,0.92593 -0.13803,0.27606 0.13803,0.64987 0,0.92592 -0.1952,0.39041 -0.73072,0.53553 -0.92593,0.92593 -0.13802,0.27606 0.13803,0.64987 0,0.92593 -0.1952,0.3904 -0.73072,0.53552 -0.92592,0.92592 -0.13803,0.27606 0.13803,0.64987 0,0.92593 -0.1952,0.3904 -0.73073,0.53552 -0.92593,0.92592 -0.13803,0.27606 0.13803,0.64987 0,0.92593 -0.1952,0.3904 -0.68381,0.56275 -0.92592,0.92593 -2.03997,0.46629 -0.48944,1.9048 -0.92593,2.77777 -0.1952,0.39041 -0.73072,0.53552 -0.92593,0.92593 -0.13802,0.27606 0.13803,0.64987 0,0.92593 -0.1952,0.3904 -0.73072,0.53552 -0.92592,0.92592 -0.13803,0.27606 0.13803,0.64987 0,0.92593 -0.1952,0.3904 -0.73073,0.53552 -0.92593,0.92592 -0.27668,0.55336 0.60953,1.85185 -0.92592,1.85185 -0.43649,0 -0.61729,-0.61728 -0.92593,-0.92592 -0.30864,-0.30864 -0.61728,-0.61729 -0.92593,-0.92593 -0.30864,-0.30864 -0.73072,-0.53552 -0.92592,-0.92592 -0.13803,-0.27606 0.13803,-0.64987 0,-0.92593 -0.1952,-0.3904 -0.73072,-0.53552 -0.92593,-0.92592 -0.13803,-0.27606 0.21825,-0.70769 0,-0.92593 -0.21824,-0.21824 -0.70768,0.21824 -0.92592,0 -0.21825,-0.21824 0.21824,-0.70768 0,-0.92593 -0.21825,-0.21824 -0.70769,0.21825 -0.92593,0 -0.21824,-0.21824 0.21824,-0.70768 0,-0.92592 -0.21824,-0.21825 -0.64987,0.13803 -0.92592,0 -0.39041,-0.19521 -0.61729,-0.61729 -0.92593,-0.92593 -1.07931,-1.0793 -2.53499,-2.82716 -3.7037,-3.7037 -0.92593,-0.61729 -1.85186,-1.23457 -2.77778,-1.85185 -0.30864,0 -0.64987,0.13802 -0.92593,0 -0.3904,-0.19521 -0.53552,-0.73073 -0.92592,-0.92593 -0.27606,-0.13803 -0.63313,0.0976 -0.92593,0 -0.65473,-0.21824 -1.27762,-0.5431 -1.85185,-0.92593 -0.36318,-0.24211 -0.51184,-0.78789 -0.92593,-0.92592 -0.5856,-0.1952 -1.26624,0.1952 -1.85185,0 -0.41409,-0.13803 -0.53552,-0.73073 -0.92593,-0.92593 -0.27605,-0.13803 -0.61728,0 -0.92592,0 -0.61729,0 -1.253,0.14972 -1.85185,0 -0.66954,-0.16738 -1.19713,-0.70768 -1.85186,-0.92592 -0.53636,-0.17879 -2.90131,0 -3.7037,0 -0.75805,0 -4.02971,-0.19998 -4.62963,0 -0.65473,0.21824 -1.23457,0.61728 -1.85185,0.92592 -0.61728,0.30864 -1.27762,0.5431 -1.85185,0.92593 -0.36318,0.24212 -0.53552,0.73072 -0.92593,0.92592 -0.27606,0.13803 -0.63312,-0.0976 -0.92592,0 -0.65473,0.21825 -1.23457,0.61729 -1.85186,0.92593 -0.61728,0.30864 -1.27761,0.5431 -1.85185,0.92593 -0.36318,0.24211 -0.53552,0.73072 -0.92592,0.92592 -3.01153,1.50577 -2.20248,0.23375 -4.62963,1.85185 -0.36318,0.24212 -0.56275,0.68381 -0.92593,0.92593 -1.14847,0.76565 -2.59947,1.02368 -3.7037,1.85185 -0.69838,0.52378 -1.17018,1.30651 -1.85185,1.85185 -0.86897,0.69518 -1.9909,1.06497 -2.77778,1.85186 -0.48801,0.488 -0.54311,1.27761 -0.92593,1.85185 -0.24212,0.36317 -0.61728,0.61728 -0.92592,0.92592 -1.23457,1.23457 -2.46914,2.46914 -3.70371,3.70371 -1.54321,1.54321 -3.08642,3.08642 -4.62963,4.62963 -0.61728,0.61728 -1.36761,1.12549 -1.85185,1.85185 -0.1712,0.2568 0.1712,0.66912 0,0.92592 -0.48424,0.72636 -1.36761,1.1255 -1.85185,1.85186 -0.17121,0.2568 0.0976,0.63312 0,0.92592 -0.21824,0.65473 -0.5431,1.27762 -0.92593,1.85185 -0.24212,0.36318 -0.6838,0.56275 -0.92592,0.92593 -0.38283,0.57423 -0.54311,1.27762 -0.92593,1.85185 -0.24212,0.36318 -0.73072,0.53552 -0.92593,0.92593 -0.13802,0.27606 0.13803,0.64987 0,0.92592 -2.11879,4.2376 0.38378,-3.92909 -1.85185,2.77778 -0.0976,0.2928 0.0976,0.63312 0,0.92593 -0.21824,0.65473 -0.75854,1.18231 -0.92592,1.85185 -0.14972,0.59885 0.1952,1.26624 0,1.85185 -0.13803,0.41409 -0.7879,0.51184 -0.92593,0.92593 -0.1952,0.5856 0.1952,1.26624 0,1.85185 -0.13803,0.41409 -0.73072,0.53552 -0.92592,0.92592 -0.13803,0.27606 0.0976,0.63313 0,0.92593 -1.06396,3.19186 -0.92593,0.68589 -0.92593,2.77778 0,0.30864 0,0.61728 0,0.92592 0,0.30865 0.13803,0.64987 0,0.92593 -1.14417,2.28834 -0.92593,-0.31961 -0.92593,1.85185 0,0.61729 0,1.23457 0,1.85185 0,0.30865 0.30865,0.92593 0,0.92593 -0.30864,0 0.21825,-0.70768 0,-0.92593 -0.21824,-0.21824 -0.63312,0.0976 -0.92592,0 -0.65473,-0.21824 -1.18232,-0.75854 -1.85185,-0.92592 -0.89828,-0.22457 -1.85186,0 -2.77778,0 -0.92593,0 -1.86983,-0.18159 -2.77778,0 -0.67674,0.13535 -1.16171,0.92592 -1.85185,0.92592 -0.69015,0 -1.16171,-0.92592 -1.85185,-0.92592 -0.97602,0 -1.81505,0.76547 -2.77778,0.92592 -7.06355,0 0.73042,-0.41408 -4.62963,0.92593 -0.59885,0.14971 -1.253,-0.14971 -1.85185,0 -0.66954,0.16738 -1.23457,0.61728 -1.85185,0.92593 -1.23457,0.61728 -2.39425,1.41536 -3.70371,1.85185 -0.2928,0.0976 -0.64987,-0.13803 -0.92592,0 -0.74323,0.37161 -1.10863,1.48024 -1.85186,1.85185 -0.27605,0.13803 -0.64986,-0.13803 -0.92592,0 -0.39041,0.1952 -0.56275,0.68381 -0.92593,0.92593 -6.7135,3.35675 1.46402,-0.97602 -2.77778,1.85185 -1.14847,0.76564 -2.55523,1.0862 -3.7037,1.85185 -0.84288,0.56192 -1.95709,2.36743 -2.77778,2.77778 -0.27606,0.13803 -0.64987,-0.13803 -0.92592,0 -0.33117,0.16558 -3.447,3.31864 -3.70371,3.7037 -0.38282,0.57424 -0.5431,1.27762 -0.92592,1.85185 -0.85757,1.28635 -0.99429,0.5655 -1.85185,1.85185 -1.13961,1.70941 -1.63818,3.84616 -2.77778,5.55556 -1.41813,2.12719 -0.52889,-0.39704 -2.77778,1.85185 -0.48801,0.48801 -0.61728,1.23457 -0.92593,1.85185 -0.30864,0.61729 -0.70768,1.19713 -0.92592,1.85186 -0.0976,0.2928 0.13803,0.64986 0,0.92592 -0.1952,0.39041 -0.73073,0.53552 -0.92593,0.92593 -0.13803,0.27605 0.13803,0.64987 0,0.92592 -0.1952,0.39041 -0.73072,0.53552 -0.92592,0.92593 -0.13803,0.27606 0,0.61728 0,0.92592 -0.30865,0.30865 -0.73073,0.53553 -0.92593,0.92593 -0.37037,0.74074 0.37037,2.03704 0,2.77778 -0.1952,0.3904 -0.73072,0.53552 -0.92593,0.92592 -0.37037,0.74075 0.37037,2.03704 0,2.77778 -0.1952,0.39041 -0.73072,0.53552 -0.92592,0.92593 -0.2722,0.54439 0.19002,2.94362 0,3.7037 -0.23672,0.94687 -0.73452,1.82072 -0.92593,2.77778 -0.12106,0.6053 0,1.23457 0,1.85185 0,0.30864 0.13803,0.64987 0,0.92593 -0.1952,0.3904 -0.73072,0.53552 -0.92592,0.92592 -0.13803,0.27606 0,0.61729 0,0.92593 0,0.30864 0,0.61728 0,0.92593 0,0.30864 0,0.61728 0,0.92592 0,0.30864 0.30864,0.92593 0,0.92593 -0.30865,0 0.13803,-0.64987 0,-0.92593 -0.19521,-0.3904 -0.73073,-0.53552 -0.92593,-0.92592 -0.13803,-0.27606 0.21824,-0.70769 0,-0.92593 -0.21824,-0.21824 -0.70768,0.21824 -0.92593,0 -0.21824,-0.21824 0.13803,-0.64987 0,-0.92593 -0.1952,-0.3904 -0.73072,-0.53552 -0.92592,-0.92592 -0.13803,-0.27606 0.13803,-0.64987 0,-0.92593 -0.1952,-0.3904 -0.61729,-0.61728 -0.92593,-0.92592 -0.92592,-0.92593 -1.85185,-1.85186 -2.77778,-2.77778 -0.30864,-0.30864 -0.6838,-0.56275 -0.92592,-0.92593 -0.38282,-0.57423 -0.5431,-1.27762 -0.92593,-1.85185 -0.25359,-0.3804 -2.39738,-2.52418 -2.77777,-2.77778 -0.57424,-0.38282 -1.27762,-0.5431 -1.85186,-0.92592 -0.72635,-0.48424 -1.07104,-1.46145 -1.85185,-1.85186 -0.27606,-0.13802 -0.61728,0 -0.92592,0 -0.61729,-0.61728 -1.1255,-1.36761 -1.85186,-1.85185 -0.2568,-0.1712 -0.61728,0 -0.92592,0 -0.61729,-0.30864 -1.29974,-0.51184 -1.85185,-0.92592 -0.69838,-0.52379 -1.15348,-1.32807 -1.85186,-1.85186 -0.66772,-0.50079 -4.68528,-2.42966 -5.55555,-2.77777 -0.90621,-0.36248 -1.87158,-0.56345 -2.77778,-0.92593 -3.19296,-1.27718 -0.53508,-0.82821 -4.62963,-1.85185 -0.29943,-0.0749 -0.63312,0.0976 -0.92592,0 -3.70371,-1.23457 0.18722,-0.88848 -4.62963,-1.85185 -0.90795,-0.18159 -1.8795,0.22457 -2.77778,0 -0.94687,-0.23672 -1.82072,-0.73452 -2.77778,-0.92593 -0.6053,-0.12106 -1.26624,0.1952 -1.85185,0 -0.41409,-0.13803 -0.51184,-0.7879 -0.92593,-0.92592 -0.51044,-0.17015 -4.76977,0 -5.55555,0 -4.01235,0 -8.02469,0 -12.03704,0 -3.39506,0 -6.79012,0 -10.18519,0 -1.54321,0 -3.11638,-0.30265 -4.62963,0 -0.67674,0.13534 -1.18231,0.75854 -1.85185,0.92592 -1.82134,0.45534 -3.69703,0.66042 -5.55555,0.92593 -0.30554,0.0436 -0.63313,-0.0976 -0.92593,0 -0.65473,0.21824 -1.18231,0.75854 -1.85185,0.92592 -0.59885,0.14972 -1.26625,-0.1952 -1.85185,0 -0.41409,0.13803 -0.51184,0.7879 -0.92593,0.92593 -0.58561,0.1952 -1.26624,-0.1952 -1.85185,0 -0.41409,0.13803 -0.53552,0.73072 -0.92593,0.92593 -0.27605,0.13802 -0.63312,-0.0976 -0.92592,0 -0.65473,0.21824 -1.18232,0.75854 -1.85185,0.92592 -0.59886,0.14971 -1.26625,-0.1952 -1.85186,0 -0.41408,0.13803 -0.51183,0.7879 -0.92592,0.92593 -0.58561,0.1952 -1.23457,0 -1.85185,0 -0.30865,0 -0.64987,-0.13803 -0.92593,0 -0.3904,0.1952 -0.51184,0.78789 -0.92593,0.92592 -4.21507,0 -0.053,-0.43648 -2.77777,0.92593 -0.27606,0.13803 -0.66912,-0.17121 -0.92593,0 -0.72635,0.48424 -1.12549,1.36761 -1.85185,1.85185 -0.25681,0.1712 -0.64987,-0.13803 -0.92593,0 -0.78081,0.39041 -1.12549,1.36762 -1.85185,1.85185 -0.57423,0.38283 -1.36384,0.43792 -1.85185,0.92593 -0.21824,0.21824 0.13803,0.64987 0,0.92592 -0.53075,1.0615 -1.93196,1.28797 -2.77778,1.85186 -0.36318,0.24211 -0.61728,0.61728 -0.92592,0.92592 -1.23457,1.23457 -2.46914,2.46914 -3.70371,3.70371 -0.61728,0.61728 -1.12549,1.36761 -1.85185,1.85185 -0.25681,0.1712 -0.64987,-0.13803 -0.92593,0 -0.24584,0.12292 -2.65485,2.53193 -2.77777,2.77778 -0.13803,0.27605 0.1712,0.66912 0,0.92592 -0.69019,1.03528 -2.6959,2.6959 -3.70371,3.70371 -0.30864,0.30864 -0.73072,0.53552 -0.92592,0.92592 -0.13803,0.27606 0.13803,0.64987 0,0.92593 -0.19521,0.3904 -0.73073,0.53552 -0.92593,0.92592 -0.13803,0.27606 0.13803,0.64987 0,0.92593 -0.1952,0.3904 -0.73072,0.53552 -0.92592,0.92592 -0.13803,0.27606 0.13802,0.64987 0,0.92593 -0.19521,0.39041 -0.73073,0.53552 -0.92593,0.92593 -0.13803,0.27605 0.13803,0.64986 0,0.92592 -0.30115,0.60231 -1.08554,1.30908 -1.85185,0.92593 -0.39041,-0.1952 -0.53552,-0.73073 -0.92593,-0.92593 -0.27606,-0.13803 -0.61728,0 -0.92592,0 -0.61729,-0.61728 -1.1255,-1.36761 -1.85186,-1.85185 -0.2568,-0.1712 -0.65795,0.15313 -0.92592,0 -1.93241,-1.10423 -3.59594,-2.64852 -5.55556,-3.7037 -10.45212,-5.62807 -2.97533,-1.0106 -9.25926,-3.70371 -1.90303,-0.81558 -3.6332,-2.00883 -5.55555,-2.77777 -1.81241,-0.72497 -3.80962,-0.97889 -5.55556,-1.85186 -0.99534,-0.49767 -1.72206,-1.49994 -2.77778,-1.85185 -0.87841,-0.2928 -1.86445,0.15222 -2.77777,0 -0.96274,-0.16045 -1.85186,-0.61728 -2.77778,-0.92592 -3.42718,-1.1424 -6.72498,-2.66565 -10.18519,-3.70371 -0.59125,-0.17737 -1.253,0.14972 -1.85185,0 -6.04499,-1.51125 3.49831,-0.49719 -4.62963,-1.85185 -0.91333,-0.15222 -1.86983,0.18159 -2.77778,0 -0.67674,-0.13535 -1.19081,-0.72761 -1.85185,-0.92593 -2.43779,-0.73133 -4.97483,-1.10336 -7.40741,-1.85185 -1.58858,-0.48879 -3.01716,-1.44873 -4.62962,-1.85185 -0.89828,-0.22457 -1.89937,0.2928 -2.77778,0 -1.05572,-0.35191 -1.74455,-1.43856 -2.77778,-1.85185 -0.57313,-0.22925 -1.24656,0.12106 -1.85185,0 -0.95706,-0.19141 -1.85185,-0.61729 -2.77778,-0.92593 -1.85185,-0.61728 -3.74315,-1.12689 -5.55556,-1.85185 -0.64078,-0.25631 -1.21106,-0.66961 -1.85185,-0.92592 -1.81241,-0.72497 -3.74314,-1.12689 -5.55555,-1.85186 -2.46914,-0.98765 -1.55872,-1.23767 -4.62963,-1.85185 -0.6053,-0.12106 -1.253,0.14971 -1.85185,0 -0.66954,-0.16738 -1.21107,-0.66961 -1.85186,-0.92592 -0.9062,-0.36249 -1.85185,-0.61729 -2.77777,-0.92593 -1.85186,-0.61728 -3.67864,-1.31559 -5.55556,-1.85185 -1.2236,-0.3496 -2.49644,-0.52351 -3.7037,-0.92593 -0.65473,-0.21824 -1.23457,-0.61728 -1.85186,-0.92592 -0.92592,-0.30865 -1.83931,-0.6578 -2.77777,-0.92593 -1.2236,-0.3496 -2.51217,-0.4791 -3.70371,-0.92593 -1.2924,-0.48465 -2.38445,-1.44592 -3.7037,-1.85185 -2.71971,-0.83683 -5.61988,-0.99497 -8.33333,-1.85185 -3.16988,-1.00101 -6.15666,-2.51039 -9.25926,-3.7037 -0.91096,-0.35037 -1.85185,-0.61729 -2.77778,-0.92593 -1.23457,-0.30864 -2.51217,-0.4791 -3.7037,-0.92593 -1.29241,-0.48465 -2.39425,-1.41536 -3.70371,-1.85185 -0.58561,-0.1952 -1.24655,0.12106 -1.85185,0 -0.95706,-0.19141 -1.85185,-0.61728 -2.77778,-0.92592 -0.92592,-0.30865 -1.87157,-0.56345 -2.77778,-0.92593 -1.28156,-0.51263 -2.36462,-1.51708 -3.7037,-1.85185 -1.19771,-0.29943 -2.53249,0.3904 -3.7037,0 -0.41409,-0.13803 -0.53552,-0.73072 -0.92593,-0.92593 -0.55211,-0.27605 -1.29974,0.27606 -1.85185,0 -0.39041,-0.1952 -0.53552,-0.73072 -0.92593,-0.92592 -0.74074,-0.37037 -2.03703,0.37037 -2.77777,0 -0.39041,-0.19521 -0.61729,-0.61729 -0.92593,-0.92593 -0.61728,0 -1.26625,0.1952 -1.85185,0 -0.41409,-0.13803 -0.53552,-0.73072 -0.92593,-0.92592 -0.27606,-0.13803 -0.63312,0.0976 -0.92592,0 -1.30946,-0.43649 -2.36463,-1.51709 -3.70371,-1.85186 -0.59885,-0.14971 -1.253,0.14972 -1.85185,0 -0.66954,-0.16738 -1.19712,-0.70768 -1.85185,-0.92592 -0.2928,-0.0976 -0.63312,0.0976 -0.92593,0 -0.65473,-0.21825 -1.18231,-0.75854 -1.85185,-0.92593 -0.59885,-0.14971 -1.253,0.14972 -1.85185,0 -1.33908,-0.33477 -2.36463,-1.51708 -3.7037,-1.85185 -0.59886,-0.14971 -1.253,0.14971 -1.85186,0 -0.66954,-0.16738 -1.20565,-0.6836 -1.85185,-0.92593 -0.15806,-6.11993 -4.50325,-1.19244 -6.48148,-1.85185 -1.30946,-0.43648 -2.36463,-1.51708 -3.7037,-1.85185 -0.89828,-0.22457 -1.89937,0.2928 -2.77778,0 -0.65473,-0.21824 -1.19712,-0.70768 -1.85185,-0.92593 -0.29281,-0.0976 -0.64987,0.13803 -0.92593,0 -0.3904,-0.1952 -0.53552,-0.73072 -0.92593,-0.92592 -0.27605,-0.13803 -0.61728,0 -0.92592,0 -0.30864,0 -0.61729,0 -0.92593,0"
       id="path3827"
       inkscape:connector-curvature="0"
       transform="translate(0,308.2677)" />
    <path
       style="fill:none;stroke:#000000;stroke-width:1px;stroke-linecap:butt;stroke-linejoin:miter;stroke-opacity:1"
       d="m 166.66667,463.53893 c 0,4.01234 0,8.02469 0,12.03703 0,0.74541 0.19372,3.12255 0,3.70371 -0.21825,0.65473 -0.70769,1.19712 -0.92593,1.85185 -0.24842,0.74528 0.29584,3.11202 0,3.7037 -0.1952,0.39041 -0.73072,0.53552 -0.92593,0.92593 -0.13802,0.27606 0,0.61728 0,0.92593 0,0.30864 0,0.61728 0,0.92592 0,0.417 0.1409,2.49599 0,2.77778 -0.1952,0.3904 -0.61728,0.61728 -0.92592,0.92592"
       id="path3829"
       inkscape:connector-curvature="0"
       transform="translate(0,308.2677)" />
    <path
       style="fill:none;stroke:#000000;stroke-width:1px;stroke-linecap:butt;stroke-linejoin:miter;stroke-opacity:1"
       d="m 382.40741,542.24263 c 0,1.23457 -0.33916,2.51664 0,3.7037 0.30571,1.07001 1.49994,1.72206 1.85185,2.77778 0.3858,1.15741 -0.2572,3.34362 0,4.62963 0.19141,0.95706 0.73451,1.82072 0.92593,2.77778 0.29317,1.46586 -0.34653,4.16944 0,5.55556 0.16738,0.66953 0.70768,1.19712 0.92592,1.85185 0.32797,0.9839 -0.32797,2.7198 0,3.7037 1.14417,3.43251 0.92593,-1.12866 0.92593,1.85185"
       id="path3831"
       inkscape:connector-curvature="0"
       transform="translate(0,308.2677)" />
    <path
       inkscape:connector-curvature="0"
       id="path3833"
       d="m 442.59259,809.76959 0,29.62963"
       style="fill:none;stroke:#000000;stroke-width:1;stroke-linecap:butt;stroke-linejoin:miter;stroke-miterlimit:4;stroke-opacity:1;stroke-dasharray:8, 8;stroke-dashoffset:0"
       sodipodi:nodetypes="cc" />
    <path
       sodipodi:nodetypes="cc"
       style="fill:none;stroke:#000000;stroke-width:1;stroke-linecap:butt;stroke-linejoin:miter;stroke-miterlimit:4;stroke-opacity:1;stroke-dasharray:8, 8;stroke-dashoffset:0"
       d="m 724.07407,620.8807 0,29.62963"
       id="path3835"
       inkscape:connector-curvature="0" />
    <path
       inkscape:connector-curvature="0"
       id="path3837"
       d="m 780.55555,587.54737 0,29.62963"
       style="fill:none;stroke:#000000;stroke-width:1;stroke-linecap:butt;stroke-linejoin:miter;stroke-miterlimit:4;stroke-opacity:1;stroke-dasharray:8, 8;stroke-dashoffset:0"
       sodipodi:nodetypes="cc" />
  </g>
</svg>
