<?xml version="1.0" encoding="UTF-8" standalone="no"?>
<!-- Created with Inkscape (http://www.inkscape.org/) -->

<svg
   xmlns:dc="http://purl.org/dc/elements/1.1/"
   xmlns:cc="http://creativecommons.org/ns#"
   xmlns:rdf="http://www.w3.org/1999/02/22-rdf-syntax-ns#"
   xmlns:svg="http://www.w3.org/2000/svg"
   xmlns="http://www.w3.org/2000/svg"
   version="1.1"
   width="30"
   height="30"
   id="svg2">
  <defs
     id="defs4" />
  <metadata
     id="metadata7">
    <rdf:RDF>
      <cc:Work
         rdf:about="">
        <dc:format>image/svg+xml</dc:format>
        <dc:type
           rdf:resource="http://purl.org/dc/dcmitype/StillImage" />
        <dc:title></dc:title>
      </cc:Work>
    </rdf:RDF>
  </metadata>
  <g
     transform="translate(0,-1022.3622)"
     id="layer1"
     style="display:inline">
    <path
       d="m 420.00001,706.6479 c -73.01759,57.23001 -197.20183,30.03779 -289.30079,18.87428 -92.098953,-11.16351 -219.183514,-14.42812 -276.41352,-87.44571 -57.23,-73.01759 -30.03778,-197.20183 -18.87427,-289.30079 11.1635,-92.09895 14.42812,-219.18351 87.445705,-276.413514 C -4.1252759,15.132164 120.05897,42.324378 212.15793,53.487887 c 92.09895,11.16351 219.18351,14.428121 276.41351,87.445713 57.23,73.01759 30.03779,197.20183 18.87428,289.30079 -11.16351,92.09895 -14.42812,219.18351 -87.44571,276.41351 z"
       transform="matrix(0.0381874,-0.00440673,0.00440673,0.0381874,6.7691037,1023.1821)"
       id="path2985"
       style="fill:#000fb5;fill-opacity:1;fill-rule:evenodd;stroke:#000fb5;stroke-width:83.70226288;stroke-linecap:butt;stroke-linejoin:miter;stroke-miterlimit:4;stroke-opacity:1;stroke-dasharray:none" />
  </g>
  <g
     id="layer2"
     style="display:none">
    <path
       d="m 420.00001,706.6479 c -73.01759,57.23001 -197.20183,30.03779 -289.30079,18.87428 -92.098953,-11.16351 -219.183514,-14.42812 -276.41352,-87.44571 -57.23,-73.01759 -30.03778,-197.20183 -18.87427,-289.30079 11.1635,-92.09895 14.42812,-219.18351 87.445705,-276.413514 C -4.1252759,15.132164 120.05897,42.324378 212.15793,53.487887 c 92.09895,11.16351 219.18351,14.428121 276.41351,87.445713 57.23,73.01759 30.03779,197.20183 18.87428,289.30079 -11.16351,92.09895 -14.42812,219.18351 -87.44571,276.41351 z"
       transform="matrix(0.03833776,-0.00442409,0.00442409,0.03833776,6.7592063,0.78287803)"
       id="path2985-5"
       style="fill:#00b515;fill-opacity:1;fill-rule:evenodd;stroke:#00b515;stroke-width:83.70226288;stroke-linecap:butt;stroke-linejoin:miter;stroke-miterlimit:4;stroke-opacity:1;stroke-dasharray:none" />
  </g>
  <g
     id="layer3"
     style="display:none">
    <path
       d="m 420.00001,706.6479 c -73.01759,57.23001 -197.20183,30.03779 -289.30079,18.87428 -92.098953,-11.16351 -219.183514,-14.42812 -276.41352,-87.44571 -57.23,-73.01759 -30.03778,-197.20183 -18.87427,-289.30079 11.1635,-92.09895 14.42812,-219.18351 87.445705,-276.413514 C -4.1252759,15.132164 120.05897,42.324378 212.15793,53.487887 c 92.09895,11.16351 219.18351,14.428121 276.41351,87.445713 57.23,73.01759 30.03779,197.20183 18.87428,289.30079 -11.16351,92.09895 -14.42812,219.18351 -87.44571,276.41351 z"
       transform="matrix(0.03833776,-0.00442409,0.00442409,0.03833776,6.7014358,0.89841891)"
       id="path3774"
       style="fill:#880000;fill-opacity:1;fill-rule:evenodd;stroke:#880000;stroke-width:93.87911987;stroke-linecap:butt;stroke-linejoin:miter;stroke-miterlimit:4;stroke-opacity:1;stroke-dasharray:none;display:inline" />
  </g>
  <g
     id="layer4"
     style="display:none">
    <path
       d="m 420.00001,706.6479 c -73.01759,57.23001 -197.20183,30.03779 -289.30079,18.87428 -92.098953,-11.16351 -219.183514,-14.42812 -276.41352,-87.44571 -57.23,-73.01759 -30.03778,-197.20183 -18.87427,-289.30079 11.1635,-92.09895 14.42812,-219.18351 87.445705,-276.413514 C -4.1252759,15.132164 120.05897,42.324378 212.15793,53.487887 c 92.09895,11.16351 219.18351,14.428121 276.41351,87.445713 57.23,73.01759 30.03779,197.20183 18.87428,289.30079 -11.16351,92.09895 -14.42812,219.18351 -87.44571,276.41351 z"
       transform="matrix(0.03796598,-0.00438118,0.00438118,0.03796598,6.7764861,0.85615195)"
       id="path3774-2"
       style="fill:#c17272;fill-opacity:1;stroke:#c17272;stroke-width:94.7984314;stroke-linecap:butt;stroke-linejoin:miter;stroke-miterlimit:4;stroke-opacity:1;stroke-dasharray:none;display:inline" />
  </g>
</svg>
