<?xml version="1.0" encoding="UTF-8" standalone="no"?>
<!-- Created with Inkscape (http://www.inkscape.org/) -->

<svg
   xmlns:dc="http://purl.org/dc/elements/1.1/"
   xmlns:cc="http://creativecommons.org/ns#"
   xmlns:rdf="http://www.w3.org/1999/02/22-rdf-syntax-ns#"
   xmlns:svg="http://www.w3.org/2000/svg"
   xmlns="http://www.w3.org/2000/svg"
   xmlns:sodipodi="http://sodipodi.sourceforge.net/DTD/sodipodi-0.dtd"
   xmlns:inkscape="http://www.inkscape.org/namespaces/inkscape"
   width="30"
   height="30"
   id="svg2"
   version="1.1"
   inkscape:version="0.48.3.1 r9886"
   sodipodi:docname="CheckBoxes.svg">
  <defs
     id="defs4" />
  <sodipodi:namedview
     id="base"
     pagecolor="#ffffff"
     bordercolor="#666666"
     borderopacity="1.0"
     inkscape:pageopacity="0.0"
     inkscape:pageshadow="2"
     inkscape:zoom="17.30989"
     inkscape:cx="1.7096253"
     inkscape:cy="15.447176"
     inkscape:document-units="px"
     inkscape:current-layer="layer1"
     showgrid="false"
     inkscape:window-width="1920"
     inkscape:window-height="1030"
     inkscape:window-x="0"
     inkscape:window-y="0"
     inkscape:window-maximized="1" />
  <metadata
     id="metadata7">
    <rdf:RDF>
      <cc:Work
         rdf:about="">
        <dc:format>image/svg+xml</dc:format>
        <dc:type
           rdf:resource="http://purl.org/dc/dcmitype/StillImage" />
        <dc:title></dc:title>
      </cc:Work>
    </rdf:RDF>
  </metadata>
  <g
     inkscape:label="Blue"
     inkscape:groupmode="layer"
     id="layer1"
     transform="translate(0,-1022.3622)"
     style="display:inline">
    <path
       sodipodi:type="star"
       style="fill:#000fb5;fill-opacity:1;fill-rule:evenodd;stroke:#000fb5;stroke-width:83.70226288;stroke-linecap:butt;stroke-linejoin:miter;stroke-miterlimit:4;stroke-opacity:1;stroke-dasharray:none"
       id="path2985"
       sodipodi:sides="4"
       sodipodi:cx="171.42857"
       sodipodi:cy="389.50504"
       sodipodi:r1="402.94833"
       sodipodi:r2="338.47659"
       sodipodi:arg1="0.90602183"
       sodipodi:arg2="1.69142"
       inkscape:flatsided="false"
       inkscape:rounded="0.32"
       inkscape:randomized="0"
       d="m 420.00001,706.6479 c -73.01759,57.23001 -197.20183,30.03779 -289.30079,18.87428 -92.098953,-11.16351 -219.183514,-14.42812 -276.41352,-87.44571 -57.23,-73.01759 -30.03778,-197.20183 -18.87427,-289.30079 11.1635,-92.09895 14.42812,-219.18351 87.445705,-276.413514 C -4.1252759,15.132164 120.05897,42.324378 212.15793,53.487887 c 92.09895,11.16351 219.18351,14.428121 276.41351,87.445713 57.23,73.01759 30.03779,197.20183 18.87428,289.30079 -11.16351,92.09895 -14.42812,219.18351 -87.44571,276.41351 z"
       transform="matrix(0.0381874,-0.00440673,0.00440673,0.0381874,6.7691037,1023.1821)" />
  </g>
  <g
     inkscape:groupmode="layer"
     id="layer2"
     inkscape:label="Green"
     style="display:none">
    <path
       sodipodi:type="star"
       style="fill:#00b515;fill-opacity:1;fill-rule:evenodd;stroke:#00b515;stroke-width:83.70226288;stroke-linecap:butt;stroke-linejoin:miter;stroke-miterlimit:4;stroke-opacity:1;stroke-dasharray:none"
       id="path2985-5"
       sodipodi:sides="4"
       sodipodi:cx="171.42857"
       sodipodi:cy="389.50504"
       sodipodi:r1="402.94833"
       sodipodi:r2="338.47659"
       sodipodi:arg1="0.90602183"
       sodipodi:arg2="1.69142"
       inkscape:flatsided="false"
       inkscape:rounded="0.32"
       inkscape:randomized="0"
       d="m 420.00001,706.6479 c -73.01759,57.23001 -197.20183,30.03779 -289.30079,18.87428 -92.098953,-11.16351 -219.183514,-14.42812 -276.41352,-87.44571 -57.23,-73.01759 -30.03778,-197.20183 -18.87427,-289.30079 11.1635,-92.09895 14.42812,-219.18351 87.445705,-276.413514 C -4.1252759,15.132164 120.05897,42.324378 212.15793,53.487887 c 92.09895,11.16351 219.18351,14.428121 276.41351,87.445713 57.23,73.01759 30.03779,197.20183 18.87428,289.30079 -11.16351,92.09895 -14.42812,219.18351 -87.44571,276.41351 z"
       transform="matrix(0.03833776,-0.00442409,0.00442409,0.03833776,6.7592063,0.78287803)" />
  </g>
  <g
     inkscape:groupmode="layer"
     id="layer3"
     inkscape:label="Red (dark)"
     style="display:none">
    <path
       transform="matrix(0.03833776,-0.00442409,0.00442409,0.03833776,6.7014358,0.89841891)"
       d="m 420.00001,706.6479 c -73.01759,57.23001 -197.20183,30.03779 -289.30079,18.87428 -92.098953,-11.16351 -219.183514,-14.42812 -276.41352,-87.44571 -57.23,-73.01759 -30.03778,-197.20183 -18.87427,-289.30079 11.1635,-92.09895 14.42812,-219.18351 87.445705,-276.413514 C -4.1252759,15.132164 120.05897,42.324378 212.15793,53.487887 c 92.09895,11.16351 219.18351,14.428121 276.41351,87.445713 57.23,73.01759 30.03779,197.20183 18.87428,289.30079 -11.16351,92.09895 -14.42812,219.18351 -87.44571,276.41351 z"
       inkscape:randomized="0"
       inkscape:rounded="0.32"
       inkscape:flatsided="false"
       sodipodi:arg2="1.69142"
       sodipodi:arg1="0.90602183"
       sodipodi:r2="338.47659"
       sodipodi:r1="402.94833"
       sodipodi:cy="389.50504"
       sodipodi:cx="171.42857"
       sodipodi:sides="4"
       id="path3774"
       style="fill:#880000;fill-opacity:1;fill-rule:evenodd;stroke:#880000;stroke-width:93.87911987;stroke-linecap:butt;stroke-linejoin:miter;stroke-miterlimit:4;stroke-opacity:1;stroke-dasharray:none;display:inline"
       sodipodi:type="star" />
  </g>
  <g
     inkscape:groupmode="layer"
     id="layer4"
     inkscape:label="Red"
     style="display:none">
    <path
       transform="matrix(0.03796598,-0.00438118,0.00438118,0.03796598,6.7764861,0.85615195)"
       d="m 420.00001,706.6479 c -73.01759,57.23001 -197.20183,30.03779 -289.30079,18.87428 -92.098953,-11.16351 -219.183514,-14.42812 -276.41352,-87.44571 -57.23,-73.01759 -30.03778,-197.20183 -18.87427,-289.30079 11.1635,-92.09895 14.42812,-219.18351 87.445705,-276.413514 C -4.1252759,15.132164 120.05897,42.324378 212.15793,53.487887 c 92.09895,11.16351 219.18351,14.428121 276.41351,87.445713 57.23,73.01759 30.03779,197.20183 18.87428,289.30079 -11.16351,92.09895 -14.42812,219.18351 -87.44571,276.41351 z"
       inkscape:randomized="0"
       inkscape:rounded="0.32"
       inkscape:flatsided="false"
       sodipodi:arg2="1.69142"
       sodipodi:arg1="0.90602183"
       sodipodi:r2="338.47659"
       sodipodi:r1="402.94833"
       sodipodi:cy="389.50504"
       sodipodi:cx="171.42857"
       sodipodi:sides="4"
       id="path3774-2"
       style="fill:#c17272;fill-opacity:1;stroke:#c17272;stroke-width:94.7984314;stroke-linecap:butt;stroke-linejoin:miter;stroke-miterlimit:4;stroke-opacity:1;stroke-dasharray:none;display:inline"
       sodipodi:type="star" />
  </g>
</svg>
